<svg xmlns="http://www.w3.org/2000/svg" width="14.013" height="17.771" viewBox="0 0 14.013 17.771">
  <path id="document-text-svgrepo-com" d="M3.752,1A1.873,1.873,0,0,0,2,2.975V16.8a1.873,1.873,0,0,0,1.752,1.975h10.51A1.873,1.873,0,0,0,16.013,16.8V7.332a2.109,2.109,0,0,0-.513-1.4L11.634,1.579A1.658,1.658,0,0,0,10.4,1Zm-.9,1.181H10.92l4.26,4.962v10.39H2.854ZM5.5,5.226c-.484,0-.876.166-.876.711s.392.717.876.717H9.882c.484,0,.876-.172.876-.717s-.392-.711-.876-.711Zm-.876,4.66c0-.545.392-.737.876-.737H12.51c.484,0,.876.192.876.737s-.392.726-.876.726H5.5C5.02,10.611,4.627,10.431,4.627,9.885ZM5.5,13.07c-.484,0-.876.219-.876.764s.392.653.876.653H12.51c.484,0,.876-.108.876-.653s-.392-.764-.876-.764Z" transform="translate(-2 -1)" fill="#262626" fill-rule="evenodd"/>
</svg>
