<svg xmlns="http://www.w3.org/2000/svg" width="22.235" height="14.823" viewBox="0 0 22.235 14.823">
  <path id="filter-svgrepo-com" d="M3,7.235A1.235,1.235,0,0,1,4.235,6H24a1.235,1.235,0,1,1,0,2.471H4.235A1.235,1.235,0,0,1,3,7.235Zm3.706,6.176a1.235,1.235,0,0,1,1.235-1.235H20.294a1.235,1.235,0,0,1,0,2.471H7.941A1.235,1.235,0,0,1,6.706,13.412Zm3.706,6.176a1.235,1.235,0,0,1,1.235-1.235h4.941a1.235,1.235,0,1,1,0,2.471H11.647A1.235,1.235,0,0,1,10.412,19.588Z" transform="translate(-3 -6)" fill="#8b93a0" fill-rule="evenodd"/>
</svg>
