<svg id="progress-report-svgrepo-com" xmlns="http://www.w3.org/2000/svg" width="16.736" height="15.209" viewBox="0 0 16.736 15.209">
  <path id="Trazado_292" data-name="Trazado 292" d="M87.24,251.8a1.036,1.036,0,0,0-.264.638v2.688h1.561v-4.249c0-.206-.118-.256-.264-.11Z" transform="translate(-82.976 -239.914)" fill="#262626"/>
  <path id="Trazado_293" data-name="Trazado 293" d="M236.269,196.4a1.038,1.038,0,0,0-.264.639v5.235h1.561v-6.8c0-.206-.118-.255-.264-.109Z" transform="translate(-225.15 -187.064)" fill="#262626"/>
  <path id="Trazado_294" data-name="Trazado 294" d="M285.928,149.006a1.034,1.034,0,0,0-.265.638v7.523h1.451V148.2c0-.206-.119-.256-.265-.11Z" transform="translate(-272.524 -141.958)" fill="#262626"/>
  <path id="Trazado_295" data-name="Trazado 295" d="M186.635,246.076l-.156.156a.885.885,0,0,0-.155.53v2.949h1.561V245.2c0-.206-.119-.256-.265-.11Z" transform="translate(-177.754 -234.502)" fill="#262626"/>
  <path id="Trazado_296" data-name="Trazado 296" d="M136.915,249.257c-.146-.146-.265-.1-.265.11v4.318h1.561v-2.761a1,1,0,0,0-.251-.624l-.251-.25Z" transform="translate(-130.365 -238.476)" fill="#262626"/>
  <path id="Trazado_297" data-name="Trazado 297" d="M34.095,301.18l-.5.5a.942.942,0,0,0-.264.561v.3h1.742v-1.963c0-.206-.118-.255-.264-.109Z" transform="translate(-31.794 -287.332)" fill="#262626"/>
  <path id="Trazado_298" data-name="Trazado 298" d="M16.472,22.763c.146.146.264.1.264-.11V17.311a.764.764,0,0,0-.747-.717H10.678c-.206,0-.256.119-.11.265l1.889,1.891-.771.767L8.113,23.094,6.223,21.2a.374.374,0,0,0-.529,0L.438,26.464a1.5,1.5,0,0,0,0,2.115l.037.037a1.5,1.5,0,0,0,2.115,0l3.369-3.371,1.89,1.888a.375.375,0,0,0,.529,0L14.609,20.9Z" transform="translate(0 -16.594)" fill="#262626"/>
</svg>
