<svg id="file-document-svgrepo-com_2_" data-name="file-document-svgrepo-com (2)" xmlns="http://www.w3.org/2000/svg" width="13.456" height="17.56" viewBox="0 0 13.456 17.56">
  <g id="Grupo_114" data-name="Grupo 114" transform="translate(0 0)">
    <g id="Grupo_113" data-name="Grupo 113">
      <path id="Trazado_270" data-name="Trazado 270" d="M73.114,3.422,69.86.168a.573.573,0,0,0-.4-.168H60.4a.573.573,0,0,0-.573.573V16.987a.573.573,0,0,0,.573.573H72.709a.573.573,0,0,0,.573-.573V3.827A.573.573,0,0,0,73.114,3.422Zm-.977,12.992H60.971V1.145h8.246l2.919,2.919v12.35Z" transform="translate(-59.826 0)" fill="#2660a3"/>
    </g>
  </g>
  <g id="Grupo_116" data-name="Grupo 116" transform="translate(7.755 12.05)">
    <g id="Grupo_115" data-name="Grupo 115" transform="translate(0)">
      <path id="Trazado_271" data-name="Trazado 271" d="M287.594,351.364a1.653,1.653,0,1,0,1.653,1.653A1.654,1.654,0,0,0,287.594,351.364Zm0,2.16a.507.507,0,1,1,.507-.507A.508.508,0,0,1,287.594,353.524Z" transform="translate(-285.941 -351.364)" fill="#2660a3"/>
    </g>
  </g>
  <g id="Grupo_118" data-name="Grupo 118" transform="translate(2.396 13.13)">
    <g id="Grupo_117" data-name="Grupo 117" transform="translate(0)">
      <path id="Trazado_272" data-name="Trazado 272" d="M131.73,382.855H130.26a.573.573,0,0,0,0,1.145h1.471a.573.573,0,0,0,0-1.145Z" transform="translate(-129.687 -382.855)" fill="#2660a3"/>
    </g>
  </g>
  <g id="Grupo_120" data-name="Grupo 120" transform="translate(2.396 3.284)">
    <g id="Grupo_119" data-name="Grupo 119" transform="translate(0)">
      <path id="Trazado_273" data-name="Trazado 273" d="M131.73,95.754H130.26a.573.573,0,0,0,0,1.145h1.471a.573.573,0,0,0,0-1.145Z" transform="translate(-129.687 -95.754)" fill="#2660a3"/>
    </g>
  </g>
  <g id="Grupo_122" data-name="Grupo 122" transform="translate(2.396 5.904)">
    <g id="Grupo_121" data-name="Grupo 121" transform="translate(0)">
      <path id="Trazado_274" data-name="Trazado 274" d="M137.779,172.134H130.26a.573.573,0,0,0,0,1.145h7.519a.573.573,0,0,0,0-1.145Z" transform="translate(-129.687 -172.134)" fill="#2660a3"/>
    </g>
  </g>
  <g id="Grupo_124" data-name="Grupo 124" transform="translate(2.396 8.523)">
    <g id="Grupo_123" data-name="Grupo 123" transform="translate(0)">
      <path id="Trazado_275" data-name="Trazado 275" d="M137.779,248.515H130.26a.573.573,0,0,0,0,1.145h7.519a.573.573,0,0,0,0-1.145Z" transform="translate(-129.687 -248.515)" fill="#2660a3"/>
    </g>
  </g>
</svg>
