<svg id="Catalogue-cant" xmlns="http://www.w3.org/2000/svg" width="19.298" height="16.176" viewBox="0 0 19.298 16.176">
  <path id="Trazado_276" data-name="Trazado 276" d="M4.219,5.75H1.053A1.055,1.055,0,0,0,0,6.805V20.524A1.055,1.055,0,0,0,1.053,21.58H4.219a1.055,1.055,0,0,0,1.055-1.055V6.805A1.055,1.055,0,0,0,4.219,5.75Zm-3.166.6H4.219a.453.453,0,0,1,.452.452v3.348H.6V6.805A.453.453,0,0,1,1.053,6.353ZM4.219,20.977H1.053A.453.453,0,0,1,.6,20.524V10.756H4.671v9.768A.453.453,0,0,1,4.219,20.977Z" transform="translate(0.002 -5.577)" fill="#262626"/>
  <path id="Trazado_277" data-name="Trazado 277" d="M6.3,44.25a1.055,1.055,0,1,0,1.055,1.055A1.055,1.055,0,0,0,6.3,44.25Zm0,1.508a.452.452,0,1,1,.452-.452A.453.453,0,0,1,6.3,45.758Z" transform="translate(-3.665 -32.469)" fill="#262626"/>
  <path id="Trazado_278" data-name="Trazado 278" d="M46.167,19.538,43.7,6.042a1.054,1.054,0,0,0-1.228-.848l-3.114.569a1.055,1.055,0,0,0-.848,1.228l2.466,13.5a1.054,1.054,0,0,0,1.228.848l3.114-.569A1.055,1.055,0,0,0,46.167,19.538Zm-6.7-13.182,3.114-.569a.461.461,0,0,1,.083-.008.451.451,0,0,1,.444.371l.6,3.293-4,.732-.6-3.293A.453.453,0,0,1,39.468,6.356Zm5.743,13.816-3.114.569a.461.461,0,0,1-.083.008.451.451,0,0,1-.444-.371l-1.756-9.609,4-.732,1.756,9.609A.453.453,0,0,1,45.211,20.172Z" transform="translate(-26.886 -5.176)" fill="#262626"/>
  <path id="Trazado_279" data-name="Trazado 279" d="M51.635,43.993a1.055,1.055,0,1,0,1.037.866A1.061,1.061,0,0,0,51.635,43.993Zm.08,1.5a.461.461,0,0,1-.083.008.452.452,0,0,1-.08-.9.461.461,0,0,1,.083-.008.452.452,0,0,1,.08.9Z" transform="translate(-35.327 -32.289)" fill="#262626"/>
  <path id="Trazado_280" data-name="Trazado 280" d="M23.469,5.75H20.3a1.055,1.055,0,0,0-1.055,1.055V20.524A1.055,1.055,0,0,0,20.3,21.58h3.166a1.055,1.055,0,0,0,1.055-1.055V6.805A1.055,1.055,0,0,0,23.469,5.75Zm-3.166.6h3.166a.453.453,0,0,1,.452.452v3.348H19.851V6.805A.453.453,0,0,1,20.3,6.353Zm3.166,14.624H20.3a.453.453,0,0,1-.452-.452V10.756h4.071v9.768A.453.453,0,0,1,23.469,20.977Z" transform="translate(-13.444 -5.577)" fill="#262626"/>
  <path id="Trazado_281" data-name="Trazado 281" d="M25.553,44.25a1.055,1.055,0,1,0,1.055,1.055A1.055,1.055,0,0,0,25.553,44.25Zm0,1.508a.452.452,0,1,1,.452-.452A.453.453,0,0,1,25.553,45.758Z" transform="translate(-17.111 -32.469)" fill="#262626"/>
</svg>
